<svg width="130" height="48" xmlns="http://www.w3.org/2000/svg" xmlns:sketch="http://www.bohemiancoding.com/sketch/ns"><title>logo</title><g sketch:type="MSLayerGroup" fill="none"><path d="M98.298 5.594v28.069000000000003c0 4.15-2.981 7.279-6.931 7.279-3.943 0-7.031-3.198-7.031-7.279 0-4.084 3.088-7.28 7.031-7.28 2.446 0 4.518 1.199 5.743 3.097v-2.134c-1.476-1.461-3.496-2.312-5.743-2.312-4.727 0-8.429 3.791-8.429 8.629 0 4.838 3.702 8.628 8.429 8.628 2.93 0 5.476-1.442 6.931-3.803v3.453h1.397v-36.347h-1.397" sketch:type="MSShapeGroup"/><path d="M127.745 38.25c-1.359 1.863-3.35 2.808-5.921 2.808-4.224 0-7.211-2.833-7.371-6.931l.015-.71c.01-.252.068-.665.068-.665.407-3.599 3.309-6.255 6.94-6.255 3.755 0 6.336 2.394 6.832 6.282h-12.582s-.138.671-.088 1.348h14.136l-.019-.467c-.21-5.17-3.459-8.511-8.279-8.511-4.726 0-8.429 3.79-8.429 8.629 0 4.999 3.692 8.628 8.777 8.628 2.992 0 5.427-1.149 7.044-3.324l.267-.359-1.122-.842-.268.369" sketch:type="MSShapeGroup"/><path d="M63.836 40.942c-2.457 0-5.385-.951-5.385-5.485v-10.024h-1.398v10.024c0 4.343 2.473 6.834 6.783 6.834 1.404 0 2.946-.477 4.185-1.474v-1.911c-1.151 1.439-2.899 2.036-4.185 2.036" sketch:type="MSShapeGroup"/><path d="M69.221 25.433h1.398v16.507h-1.398v-16.507zm0 0" sketch:type="MSShapeGroup"/><path d="M36.331 25.034c-1.407 0-2.955.485-4.198 1.505v1.957c1.121-1.437 2.829-2.113 4.198-2.113 2.456 0 5.384.959 5.384 5.534v10.024h1.399v-10.024c0-4.374-2.473-6.883-6.783-6.883" sketch:type="MSShapeGroup"/><path d="M29.547 25.433v16.508h1.399l-.007-16.508h-1.392" sketch:type="MSShapeGroup"/><path d="M4.095 41.191h1.469v-8.875h-1.469v8.875zm0 0" sketch:type="MSShapeGroup"/><path d="M4.095 25.335h1.469v3.137h-1.469v-3.137zm0 0" sketch:type="MSShapeGroup"/><path d="M9.832 34.21h1.47v-8.875h-1.47v8.875zm0 0" sketch:type="MSShapeGroup"/><path d="M9.832 38.105h1.47v3.086h-1.47v-3.086zm0 0" sketch:type="MSShapeGroup"/><path d="M8.016 31.128v.001h.629v-1.47h-8.419v1.47l7.79-.001" sketch:type="MSShapeGroup"/><path d="M12.489 29.658h2.682v1.47h-2.682v-1.47zm0 0" sketch:type="MSShapeGroup"/><path d="M.226 35.396h2.681v1.469h-2.681v-1.469zm0 0" sketch:type="MSShapeGroup"/><path d="M6.752 36.866h8.42v-1.469h-8.42v1.469zm0 0" sketch:type="MSShapeGroup"/><path d="M8.016 31.128v.001" fill="#fff" sketch:type="MSShapeGroup"/></g></svg>