<?xml version="1.0" encoding="UTF-8" standalone="no"?>
<svg width="130px" height="48px" viewBox="0 0 130 48" version="1.1" xmlns="http://www.w3.org/2000/svg" xmlns:xlink="http://www.w3.org/1999/xlink" xmlns:sketch="http://www.bohemiancoding.com/sketch/ns">
    <title>logo</title>
    <description>Created with Sketch (http://www.bohemiancoding.com/sketch)</description>
    <defs></defs>
    <g id="Page-1" stroke="none" stroke-width="1" fill="none" fill-rule="evenodd" sketch:type="MSPage">
        <g id="logo" sketch:type="MSArtboardGroup">
            <g sketch:type="MSLayerGroup" transform="translate(0.000000, 5.000000)">
                <path d="M98.298,0.594 L98.298,20.6 L98.298,26.971 L98.298,28.663 C98.298,32.813 95.317,35.942 91.367,35.942 C87.424,35.942 84.336,32.744 84.336,28.663 C84.336,24.579 87.424,21.383 91.367,21.383 C93.813,21.383 95.885,22.582 97.11,24.48 L97.11,22.346 C95.634,20.885 93.614,20.034 91.367,20.034 C86.64,20.034 82.938,23.825 82.938,28.663 C82.938,33.501 86.64,37.291 91.367,37.291 C94.297,37.291 96.843,35.849 98.298,33.488 L98.298,36.941 L99.695,36.941 L99.695,0.594 L98.298,0.594" id="Fill-1" fill="#000000" sketch:type="MSShapeGroup"></path>
                <path d="M127.745,33.25 C126.386,35.113 124.395,36.058 121.824,36.058 C117.6,36.058 114.613,33.225 114.453,29.127 C114.453,29.127 114.456,28.725 114.468,28.417 C114.478,28.165 114.536,27.752 114.536,27.752 C114.943,24.153 117.845,21.497 121.476,21.497 C125.231,21.497 127.812,23.891 128.308,27.779 L115.726,27.779 C115.726,27.779 115.588,28.45 115.638,29.127 L129.774,29.127 L129.755,28.66 C129.545,23.49 126.296,20.149 121.476,20.149 C116.75,20.149 113.047,23.939 113.047,28.778 C113.047,33.777 116.739,37.406 121.824,37.406 C124.816,37.406 127.251,36.257 128.868,34.082 L129.135,33.723 L128.013,32.881 L127.745,33.25" id="Fill-2" fill="#000000" sketch:type="MSShapeGroup"></path>
                <path d="M63.836,35.942 C61.379,35.942 58.451,34.991 58.451,30.457 L58.451,20.433 L57.053,20.433 L57.053,30.457 C57.053,34.8 59.526,37.291 63.836,37.291 C65.24,37.291 66.782,36.814 68.021,35.817 L68.021,33.906 C66.87,35.345 65.122,35.942 63.836,35.942" id="Fill-3" fill="#000000" sketch:type="MSShapeGroup"></path>
                <path d="M69.221,20.433 L70.619,20.433 L70.619,36.94 L69.221,36.94 L69.221,36.94 L69.221,20.433 L69.221,20.433 Z M69.221,20.433" id="Fill-4" fill="#000000" sketch:type="MSShapeGroup"></path>
                <path d="M36.331,20.034 C34.924,20.034 33.376,20.519 32.133,21.539 L32.133,23.496 C33.254,22.059 34.962,21.383 36.331,21.383 C38.787,21.383 41.715,22.342 41.715,26.917 L41.715,36.941 L43.114,36.941 L43.114,26.917 C43.114,22.543 40.641,20.034 36.331,20.034" id="Fill-5" fill="#000000" sketch:type="MSShapeGroup"></path>
                <path d="M29.547,20.433 L29.547,36.941 L30.946,36.941 L30.939,20.433 L29.547,20.433" id="Fill-6" fill="#000000" sketch:type="MSShapeGroup"></path>
                <path d="M4.095,36.191 L5.564,36.191 L5.564,27.316 L4.095,27.316 L4.095,27.316 L4.095,36.191 L4.095,36.191 Z M4.095,36.191" id="Fill-7" fill="#000000" sketch:type="MSShapeGroup"></path>
                <path d="M4.095,20.335 L5.564,20.335 L5.564,23.472 L4.095,23.472 L4.095,23.472 L4.095,20.335 L4.095,20.335 Z M4.095,20.335" id="Fill-8" fill="#000000" sketch:type="MSShapeGroup"></path>
                <path d="M9.832,29.21 L11.302,29.21 L11.302,20.335 L9.832,20.335 L9.832,20.335 L9.832,29.21 L9.832,29.21 Z M9.832,29.21" id="Fill-9" fill="#000000" sketch:type="MSShapeGroup"></path>
                <path d="M9.832,33.105 L11.302,33.105 L11.302,36.191 L9.832,36.191 L9.832,36.191 L9.832,33.105 L9.832,33.105 Z M9.832,33.105" id="Fill-10" fill="#000000" sketch:type="MSShapeGroup"></path>
                <path d="M8.016,26.128 L8.016,26.129 L8.645,26.129 L8.645,24.659 L0.226,24.659 L0.226,26.129 L8.016,26.128" id="Fill-11" fill="#000000" sketch:type="MSShapeGroup"></path>
                <path d="M12.489,24.658 L15.171,24.658 L15.171,26.128 L12.489,26.128 L12.489,26.128 L12.489,24.658 L12.489,24.658 Z M12.489,24.658" id="Fill-12" fill="#000000" sketch:type="MSShapeGroup"></path>
                <path d="M0.226,30.396 L2.907,30.396 L2.907,31.865 L0.226,31.865 L0.226,31.865 L0.226,30.396 L0.226,30.396 Z M0.226,30.396" id="Fill-13" fill="#000000" sketch:type="MSShapeGroup"></path>
                <path d="M6.752,31.866 L15.172,31.866 L15.172,30.397 L6.752,30.397 L6.752,30.397 L6.752,31.866 L6.752,31.866 Z M6.752,31.866" id="Fill-14" fill="#000000" sketch:type="MSShapeGroup"></path>
                <path d="M8.016,26.128 L8.016,26.129" id="Fill-15" fill="#FFFFFF" sketch:type="MSShapeGroup"></path>
            </g>
        </g>
    </g>
</svg>